<svg version="1.1" id="Layer_1" xmlns="http://www.w3.org/2000/svg" xmlns:xlink="http://www.w3.org/1999/xlink" x="0px" y="0px"
	 width="100%" viewBox="0 0 1024 400" enable-background="new 0 0 1024 400" xml:space="preserve">
<path fill="#000000" opacity="1.000000" stroke="none" 
	d="
M153.444168,401.000000 
	C152.521652,394.653503 154.199799,388.678528 156.971176,383.160339 
	C164.315903,368.535950 172.723572,354.561371 184.579819,343.041260 
	C187.378281,340.322144 188.668243,337.093384 189.593002,333.502319 
	C197.216080,303.900360 207.952789,275.626099 222.257935,248.453735 
	C234.730286,224.762741 245.498993,200.146378 258.512909,176.706436 
	C277.613525,142.303452 300.147522,110.417908 329.688690,84.053185 
	C343.968109,71.309181 360.835663,63.328617 380.034119,62.008064 
	C396.856445,60.850945 410.436920,67.910851 420.315796,81.699738 
	C430.624298,96.088425 433.720337,113.007072 437.155640,129.822189 
	C441.062225,148.943985 441.361389,168.435944 443.370819,187.752289 
	C443.853210,192.389481 444.323517,197.007446 444.410797,201.669586 
	C444.488739,205.831314 446.381287,208.540649 450.196960,210.696198 
	C459.123138,215.738800 460.626984,224.959579 454.020599,230.877533 
	C452.310455,232.409485 450.649811,233.039291 448.671112,231.643692 
	C435.466309,222.330322 421.101562,224.717865 406.850159,227.809586 
	C379.426910,233.758835 352.701355,242.000168 327.711517,254.952072 
	C302.357178,268.092896 278.936707,284.200684 257.088257,302.629822 
	C242.597717,314.852600 228.143539,327.141479 213.543762,339.199890 
	C202.243362,348.533264 198.405426,361.013580 193.504547,373.411041 
	C192.222931,376.653015 191.529541,380.141693 189.356750,382.971466 
	C188.323349,384.317291 186.999435,385.505463 185.100494,384.781616 
	C183.310944,384.099426 182.652039,382.503937 182.805038,380.737610 
	C183.087540,377.476166 183.562286,374.231323 184.096283,369.831360 
	C173.832489,378.958832 169.415100,391.067841 161.210602,400.739166 
	C158.629440,401.000000 156.258896,401.000000 153.444168,401.000000 
M260.654999,275.124481 
	C269.087402,268.880463 277.475342,262.588348 286.176392,256.701416 
	C309.235504,241.100189 333.991333,228.783203 360.381042,220.248779 
	C382.321838,213.153137 404.453400,206.017334 427.972260,205.940643 
	C430.758270,205.931564 431.860779,204.349976 431.488434,201.699661 
	C430.655975,195.773941 429.786560,189.853363 428.914642,183.933258 
	C426.441437,167.140518 424.589691,150.278030 423.026031,133.377258 
	C421.778442,119.892281 419.663788,106.518921 413.121002,94.439514 
	C406.719971,82.621895 397.208252,75.807304 382.974426,75.940620 
	C371.295563,76.049995 361.741699,81.010269 353.764832,88.301018 
	C343.597137,97.594162 333.480011,106.985016 324.052032,117.160782 
	C303.006348,139.875778 287.079834,165.922379 272.366425,192.839035 
	C261.027039,213.583313 250.396622,234.699875 240.105438,255.992798 
	C232.350739,272.037598 224.259918,287.920349 217.168442,304.276672 
	C216.121841,306.690582 214.385727,309.177063 216.197708,313.056427 
	C230.402039,299.475342 245.465317,287.782806 260.654999,275.124481 
z"/>
<path fill="#000000" opacity="1.000000" stroke="none" 
	d="
M179.920303,249.210678 
	C169.765915,240.513672 167.338516,228.353943 163.753479,216.797928 
	C159.708969,203.760788 155.683884,190.714142 151.948013,177.586914 
	C150.878281,173.828049 148.844925,172.203110 145.215866,172.485962 
	C139.719009,172.914352 134.238632,172.794571 128.756195,172.397614 
	C125.547844,172.165314 123.893501,173.536911 123.228546,176.748459 
	C119.687675,193.849686 115.909729,210.902222 112.431686,228.015884 
	C110.263489,238.684479 114.744041,244.152496 125.675331,244.675964 
	C128.169022,244.795380 130.675400,244.641617 133.170197,244.748260 
	C135.681747,244.855606 138.904388,243.915955 139.110245,248.106110 
	C139.326157,252.501175 136.812256,256.291962 133.362091,256.764313 
	C132.213242,256.921600 131.034683,256.893982 129.869598,256.895996 
	C107.045265,256.935425 84.220863,256.996429 61.396629,256.958832 
	C58.803356,256.954559 55.198296,258.010620 55.115276,253.459122 
	C55.015644,247.997055 57.431667,244.493088 61.635712,244.883286 
	C76.239197,246.238693 83.922180,237.612381 86.771255,223.482376 
	C94.923409,183.051712 103.238113,142.653824 111.492073,102.243683 
	C112.124016,99.149765 112.773529,96.059380 113.427376,92.969994 
	C115.049225,85.306786 112.681618,81.352585 105.228844,79.036285 
	C103.284996,78.432144 101.343689,78.188194 99.335190,78.141724 
	C90.739555,77.942902 90.445229,77.444870 92.819031,69.296951 
	C93.571205,66.715179 95.144638,65.859703 97.568871,65.860214 
	C123.391830,65.865662 149.222000,65.511902 175.034271,66.037643 
	C185.661758,66.254105 195.966476,69.002541 205.558243,74.323830 
	C220.570953,82.652542 226.463760,101.972900 224.705475,117.457169 
	C221.859711,142.518402 207.047333,157.099640 184.000992,164.671936 
	C176.338913,167.189438 176.348099,167.210999 178.896957,174.678452 
	C184.599106,191.384399 190.240570,208.111465 196.046555,224.781235 
	C197.299469,228.378540 198.940903,231.879486 200.758286,235.232452 
	C203.785812,240.818146 208.980591,243.117340 214.999481,244.237122 
	C217.036728,244.616135 220.763000,243.643341 220.646774,246.812180 
	C220.524872,250.136353 219.010376,253.628143 215.431549,255.299042 
	C214.692825,255.643921 213.837112,255.867416 213.024216,255.904739 
	C201.560822,256.431152 190.379807,255.477234 179.920303,249.210678 
M152.580414,79.176590 
	C142.453232,79.403183 143.587448,77.497887 141.233963,88.517250 
	C139.256668,97.775291 137.279617,107.034142 135.412384,116.314758 
	C132.985779,128.375702 130.624573,140.450272 128.322754,152.535645 
	C127.262222,158.103851 128.320435,159.925507 132.768250,159.523956 
	C140.586609,158.818115 148.428024,159.548737 156.215027,158.926102 
	C170.496445,157.784195 182.010162,151.554672 189.707108,139.204315 
	C196.907257,127.651131 197.238144,114.874748 195.046204,102.041138 
	C192.661499,88.079002 186.836639,82.861549 172.956558,80.023338 
	C166.489105,78.700867 160.019073,79.458702 152.580414,79.176590 
z"/>
<path fill="#000000" opacity="1.000000" stroke="none" 
	d="
M785.435913,64.246567 
	C787.210205,62.498470 789.111206,62.794636 790.915405,62.793201 
	C803.411804,62.783276 815.909790,62.918427 828.403748,62.749622 
	C832.313904,62.696785 834.385254,64.159576 835.968872,67.731888 
	C853.103088,106.383675 870.364014,144.979385 887.641479,183.567535 
	C891.016785,191.106049 894.611023,198.546570 898.104248,206.032318 
	C898.623352,206.025009 899.142517,206.017700 899.661621,206.010376 
	C901.014893,199.615997 902.392456,193.226639 903.717224,186.826370 
	C910.053406,156.214127 916.379333,125.599762 922.693787,94.983025 
	C923.164001,92.702980 923.725952,90.412758 923.884033,88.102554 
	C924.540222,78.510185 921.105286,74.703857 911.430969,74.082680 
	C910.766907,74.040031 910.091125,74.124588 909.433655,74.044350 
	C906.558167,73.693390 902.526062,75.212440 902.580200,69.972801 
	C902.641724,64.024124 904.369141,61.935730 909.581665,61.914013 
	C928.076172,61.836952 946.571045,61.839748 965.065735,61.841789 
	C967.561951,61.842064 970.338074,61.580048 970.545776,65.284843 
	C970.813293,70.058754 968.641174,73.658768 965.177917,73.985138 
	C961.876160,74.296303 958.560974,73.949181 955.245667,74.735977 
	C948.116028,76.428001 943.383118,80.739029 941.103638,87.522636 
	C936.745605,100.491898 935.105164,114.098869 932.264954,127.418663 
	C926.296082,155.410995 920.781189,183.500122 915.081787,211.549896 
	C912.764343,222.954926 910.419434,234.354492 908.149170,245.768906 
	C906.846069,252.320831 905.663025,252.442154 899.124146,252.905960 
	C890.803040,253.496170 887.407104,249.514862 884.353638,242.518600 
	C869.173340,207.737442 853.501465,173.170868 838.009033,138.525940 
	C832.505188,126.218063 827.024048,113.900063 821.509216,101.597137 
	C821.250549,101.019989 820.764343,100.544815 820.192322,99.758354 
	C817.975891,101.508156 818.029724,104.034264 817.621887,106.133507 
	C809.750671,146.643845 801.557922,187.088074 793.013428,227.461777 
	C791.445801,234.868912 794.938293,239.740997 802.469238,240.873871 
	C804.935669,241.244904 807.443542,241.335190 809.929565,241.582840 
	C812.018433,241.790955 815.062683,241.485229 814.426208,244.656876 
	C813.806885,247.743027 814.892212,252.134018 810.134399,253.225662 
	C809.021545,253.481018 807.811279,253.323364 806.645630,253.335587 
	C788.823669,253.522552 771.001953,253.765732 753.179565,253.822388 
	C750.690186,253.830307 747.060242,255.013931 746.741577,250.487259 
	C746.371338,245.227264 748.670227,242.037369 753.017212,241.655457 
	C754.510010,241.524323 755.998474,241.323746 757.493713,241.243469 
	C769.403442,240.604141 774.861633,234.772415 777.512390,222.514221 
	C783.415955,195.214462 788.475586,167.733414 794.082214,140.367844 
	C797.456604,123.897385 801.155640,107.492393 804.818848,91.082550 
	C806.994507,81.336044 803.703674,76.455658 793.801147,75.172478 
	C793.306458,75.108368 792.801025,75.039436 792.306885,75.071083 
	C781.451233,75.766434 782.296631,73.991699 785.435913,64.246567 
z"/>
<path fill="#000000" opacity="1.000000" stroke="none" 
	d="
M689.009338,62.855095 
	C708.499268,62.829445 727.491211,62.779045 746.483093,62.794353 
	C752.479980,62.799187 753.199768,63.364552 752.022949,69.069008 
	C749.465393,81.466522 747.492493,93.956223 745.528931,106.450279 
	C745.119629,109.054428 743.874939,110.309563 741.243103,110.233284 
	C739.745056,110.189857 738.244446,110.246315 736.745422,110.225739 
	C730.724426,110.143066 730.409668,109.526291 731.225159,103.380600 
	C731.945251,97.954453 732.520630,92.439438 730.590454,87.085869 
	C728.272095,80.655640 723.915161,77.214897 717.134705,77.152542 
	C702.142517,77.014664 687.148010,77.152779 672.154419,77.130379 
	C669.468567,77.126366 667.896057,77.964706 667.296082,80.902878 
	C663.203979,100.943558 658.929199,120.946884 654.795227,140.979156 
	C653.657227,146.493668 654.138550,146.906601 659.924927,146.895599 
	C676.917542,146.863297 693.910156,146.825211 710.902771,146.837509 
	C717.423096,146.842224 717.983521,147.567902 716.739197,153.765030 
	C715.257996,161.141830 715.257996,161.157227 707.899597,161.163071 
	C690.740173,161.176712 673.579407,161.293777 656.422424,161.092072 
	C652.245667,161.042969 650.584229,162.524994 649.762695,166.539062 
	C645.162109,189.019684 640.312805,211.449341 635.579041,233.902863 
	C634.922913,237.015121 634.438171,240.108902 639.262695,240.069000 
	C656.578064,239.925735 673.910706,240.598068 691.197876,239.123169 
	C702.262146,238.179199 709.571899,232.015060 713.941528,222.109665 
	C715.619385,218.306168 716.974121,214.360062 718.474243,210.478195 
	C720.010437,206.502625 728.906677,204.179825 732.157532,206.896530 
	C733.560852,208.069244 733.315308,209.597763 732.960999,211.041412 
	C729.826355,223.811188 726.619812,236.563309 723.493042,249.335007 
	C722.686829,252.628143 720.675293,253.954330 717.362488,253.923431 
	C710.366272,253.858170 703.368774,253.932526 696.371765,253.959518 
	C659.891479,254.100281 623.411255,254.276688 586.930847,254.322174 
	C584.162354,254.325623 579.954773,255.877945 579.884155,250.612396 
	C579.801941,244.488678 581.488708,242.822662 587.384338,242.689255 
	C601.040771,242.380219 607.369751,237.527313 610.735229,224.052216 
	C615.734619,204.035019 619.008606,183.652405 623.170593,163.456818 
	C627.802307,140.982101 632.502502,118.521492 637.167053,96.053520 
	C637.403320,94.915672 637.679443,93.774338 637.776306,92.621124 
	C638.894348,79.315102 636.114868,76.314781 622.741089,75.967392 
	C620.390015,75.906319 616.911133,77.231918 616.606506,72.982605 
	C616.204590,67.374359 618.696960,63.879250 623.117432,63.843727 
	C634.112122,63.755383 645.115112,63.547607 656.101074,63.862831 
	C666.940613,64.173859 677.692505,62.611477 689.009338,62.855095 
z"/>
<path fill="#000000" opacity="1.000000" stroke="none" 
	d="
M557.135010,97.152267 
	C558.796631,93.828079 560.206787,90.797760 560.619629,87.443787 
	C561.399292,81.111145 558.462158,77.254730 552.117310,76.304062 
	C550.644958,76.083450 549.082520,76.380577 547.638062,76.076172 
	C545.002930,75.520836 540.612549,78.027100 540.597839,72.518982 
	C540.580688,66.085587 542.517822,63.884747 548.076660,63.867489 
	C566.068054,63.811626 584.059631,63.787071 602.050964,63.835564 
	C604.193726,63.841339 607.036011,63.091702 607.300476,66.754761 
	C607.641113,71.472458 605.153076,76.268074 601.903137,75.896614 
	C590.062866,74.543297 584.250610,82.104485 579.356689,90.782578 
	C568.157532,110.641197 557.227722,130.651581 546.150574,150.579239 
	C530.950378,177.924149 515.713013,205.248398 500.496429,232.584167 
	C497.176453,238.548370 493.835510,244.501511 490.584625,250.503296 
	C488.903473,253.607147 486.483978,254.902740 482.904053,254.968658 
	C468.234253,255.238831 468.584137,255.273972 466.713776,240.689804 
	C463.946014,219.108261 460.657532,197.592941 457.531555,176.058014 
	C453.712280,149.746597 449.854950,123.440613 445.953583,97.141235 
	C445.345856,93.044685 444.993988,88.906868 443.739166,84.901413 
	C441.900024,79.030647 438.032990,76.161652 431.915436,76.156723 
	C429.215210,76.154541 426.286713,76.306580 426.157501,72.381020 
	C426.009003,67.869995 428.275330,64.912994 432.102203,64.819481 
	C452.735596,64.315292 473.365326,63.474941 494.010773,63.879421 
	C496.620148,63.930546 500.134552,62.994820 500.031067,67.655594 
	C499.908447,73.180443 497.970825,75.873772 493.767242,76.103546 
	C490.620117,76.275574 487.476776,76.008263 484.339905,76.835587 
	C476.127045,79.001640 473.517242,82.096420 473.350586,90.496544 
	C473.157867,100.208107 475.267059,109.685516 476.429138,119.253632 
	C479.234375,142.351013 482.021729,165.454788 485.261566,188.493362 
	C486.900635,200.148727 486.588409,211.964188 488.694794,224.578552 
	C490.263824,221.736725 491.531342,219.720032 492.536072,217.579956 
	C511.374695,177.453430 534.042480,139.387024 555.409424,100.620888 
	C555.971497,99.601082 556.445435,98.532639 557.135010,97.152267 
z"/>
<path fill="#000000" opacity="1.000000" stroke="none" 
	d="
M334.769043,143.103943 
	C336.087402,133.344757 341.431152,127.840210 350.521881,125.549957 
	C354.907349,124.445114 358.866241,124.581429 362.006104,128.061844 
	C365.289398,131.701263 365.408234,136.378998 363.334900,140.226196 
	C360.329803,145.802277 355.823303,150.502884 349.801056,152.988846 
	C341.792450,156.294785 335.666962,152.274704 334.769043,143.103943 
z"/>
</svg>